<?xml version="1.0" standalone="no"?>
<!DOCTYPE svg PUBLIC "-//W3C//DTD SVG 20010904//EN"
 "http://www.w3.org/TR/2001/REC-SVG-20010904/DTD/svg10.dtd">
<svg version="1.0" xmlns="http://www.w3.org/2000/svg"
 width="180.000000pt" height="180.000000pt" viewBox="0 0 180.000000 180.000000"
 preserveAspectRatio="xMidYMid meet">
<metadata>
Created by potrace 1.11, written by Peter Selinger 2001-2013
</metadata>
<g transform="translate(0.000000,180.000000) scale(0.100000,-0.100000)"
fill="#000000" stroke="none">
<path d="M332 1631 c-58 -20 -86 -42 -110 -86 -14 -26 -17 -76 -20 -347 -3
-220 0 -323 8 -337 8 -16 20 -21 49 -21 53 0 61 24 71 200 6 109 13 159 29
201 74 194 229 288 506 305 61 4 116 11 123 17 18 14 15 51 -6 70 -16 15 -52
17 -308 17 -253 -1 -296 -3 -342 -19z"/>
<path d="M907 1418 c-20 -7 -27 -16 -25 -30 3 -18 11 -20 98 -22 113 -2 155
-19 218 -92 82 -92 116 -227 116 -464 1 -247 -35 -390 -118 -473 -52 -53 -92
-70 -174 -75 -166 -11 -276 92 -338 313 -11 40 -18 110 -20 209 -4 175 -5 178
-93 184 -56 4 -62 2 -90 -25 -26 -26 -30 -38 -36 -114 -12 -153 25 -322 94
-422 96 -140 244 -210 446 -210 168 0 281 41 380 138 92 90 143 205 165 375
46 351 -114 639 -391 705 -72 17 -190 19 -232 3z"/>
</g>
</svg>
